<?xml version="1.0" encoding="UTF-8"?>
<svg id="Layer_1" data-name="Layer 1" xmlns="http://www.w3.org/2000/svg" viewBox="0 0 386.12 90.41">
  <defs>
    <style>
      .cls-1, .cls-2 {
        fill: #fff;
      }

      .cls-2 {
        fill-rule: evenodd;
      }
    </style>
  </defs>
  <path class="cls-1" d="M212.45,7.69c1.14-1.1,2.33-2.11,3.55-3.02,1.23-.92,2.53-1.7,3.9-2.36,1.37-.66,2.86-1.17,4.45-1.54,1.59-.37,3.31-.55,5.18-.55,3.08,0,5.8,.53,8.18,1.59,2.38,1.06,4.39,2.54,6.02,4.45,1.63,1.9,2.86,4.18,3.68,6.81,.82,2.64,1.23,5.53,1.23,8.68V57.72h-15.11V21.75c0-3.15-.73-5.6-2.2-7.34-1.46-1.74-3.62-2.6-6.48-2.6-2.12,0-4.12,.46-5.99,1.37-1.87,.91-3.64,2.2-5.33,3.84V57.72h-15.16V1.1h9.34c1.9,0,3.36,.82,3.79,2.64l.93,3.95h0Zm-54,24.06c.48,5.31,2,9.19,4.54,11.64,2.54,2.45,5.86,3.68,9.96,3.68,2.09,0,3.9-.26,5.42-.75,1.52-.49,2.86-1.04,4.01-1.65,1.15-.6,2.2-1.15,3.13-1.65,.93-.49,1.85-.73,2.77-.73,1.17,0,2.06,.46,2.75,1.32l4.39,5.49c-1.61,1.87-3.39,3.41-5.33,4.63-1.94,1.23-3.95,2.2-6.04,2.91-2.09,.71-4.19,1.21-6.32,1.48-2.12,.27-4.17,.42-6.15,.42-3.95,0-7.63-.66-11.06-1.96-3.42-1.3-6.41-3.22-8.95-5.77-2.54-2.54-4.56-5.69-6.02-9.46-1.46-3.77-2.2-8.15-2.2-13.13,0-3.84,.64-7.47,1.9-10.88,1.26-3.4,3.08-6.37,5.46-8.9,2.38-2.53,5.27-4.54,8.68-6.02,3.41-1.48,7.25-2.22,11.54-2.22,3.63,0,6.98,.57,10.03,1.72,3.06,1.15,5.7,2.84,7.91,5.04,2.21,2.2,3.94,4.89,5.16,8.09,1.23,3.2,1.83,6.87,1.83,10.97,0,1.13-.05,2.07-.17,2.8-.11,.73-.29,1.32-.55,1.76-.26,.44-.6,.73-1.04,.9-.44,.16-1.01,.26-1.7,.26h-33.94Zm23.84-9.01c0-1.57-.2-3.08-.62-4.5-.42-1.43-1.1-2.69-2.01-3.79-.91-1.1-2.07-1.98-3.46-2.62-1.39-.64-3.06-.95-5-.95-3.62,0-6.46,1.03-8.51,3.08-2.05,2.05-3.39,4.98-4.01,8.79h23.62ZM102.7,8.51c1.13-1.24,2.34-2.4,3.62-3.44,1.28-1.04,2.65-1.94,4.12-2.69,1.46-.75,3.04-1.34,4.72-1.76,1.68-.42,3.51-.62,5.49-.62,3.04,0,5.84,.64,8.38,1.94,2.55,1.3,4.72,3.19,6.55,5.66,1.83,2.47,3.26,5.51,4.28,9.1,1.03,3.59,1.54,7.69,1.54,12.3,0,4.25-.57,8.17-1.72,11.77-1.15,3.61-2.8,6.74-4.92,9.37-2.12,2.64-4.67,4.69-7.65,6.17-2.98,1.48-6.32,2.23-9.98,2.23-3.08,0-5.68-.46-7.82-1.37-2.14-.91-4.06-2.16-5.75-3.73v32.48h-15.16V1.1h9.34c1.9,0,3.35,.82,3.79,2.64l1.15,4.78h0Zm.88,34.27c1.43,1.65,2.98,2.8,4.65,3.46,1.67,.66,3.44,.99,5.35,.99s3.5-.35,5-1.04c1.5-.7,2.8-1.79,3.88-3.28,1.08-1.48,1.9-3.37,2.49-5.68,.59-2.31,.88-5.05,.88-8.24s-.24-5.82-.73-8.02c-.49-2.2-1.19-3.97-2.09-5.33-.9-1.35-2-2.34-3.28-2.95-1.28-.6-2.71-.9-4.28-.9-2.67,0-4.91,.51-6.72,1.56-1.81,1.04-3.53,2.58-5.15,4.6v24.83h0ZM66.01,10.44c1.79-3.22,3.86-5.77,6.21-7.63,2.34-1.87,5.09-2.8,8.24-2.8,2.56,0,4.65,.6,6.26,1.81l-.99,11.2c-.07,.75-.46,1.23-.84,1.5-.38,.27-.92,.42-1.58,.42-.58,0-1.43-.09-2.53-.26-1.1-.16-2.12-.24-3.08-.24-1.39,0-2.62,.2-3.7,.6-1.08,.4-2.05,.97-2.89,1.7-.84,.73-1.59,1.63-2.27,2.69-.68,1.06-1.32,2.27-1.9,3.63V57.72h-15.16V1.1h8.95c1.54,0,2.6,.27,3.18,.82,.59,.55,1.07,1.49,1.26,2.86l.82,5.66h0ZM2.69,8.95c3.33-3,7.01-5.25,11.04-6.74C17.76,.73,22.12,0,26.8,0c3.37,0,6.39,.55,9.04,1.65,2.65,1.1,4.91,2.62,6.76,4.58,1.85,1.96,3.26,4.3,4.25,7.01,.99,2.71,1.48,5.68,1.48,8.9V57.72h-6.92c-1.43,0-2.51-.2-3.26-.6-.75-.4-1.42-1.23-1.85-2.53l-1.21-3.62c-1.43,1.24-2.8,2.34-4.14,3.3-1.34,.95-2.73,1.74-4.16,2.38-1.43,.64-2.95,1.14-4.58,1.46-1.63,.33-3.46,.49-5.47,.49-2.49,0-4.76-.33-6.81-.99-2.05-.66-3.81-1.65-5.29-2.95-1.48-1.3-2.64-2.91-3.44-4.85-.81-1.94-1.21-4.17-1.21-6.7,0-2.09,.53-4.17,1.59-6.26,1.06-2.09,2.89-3.99,5.47-5.69,2.58-1.7,6.02-3.11,10.33-4.23,4.3-1.12,9.69-1.74,16.17-1.89v-2.91c0-3.55-.75-6.17-2.25-7.84-1.5-1.67-3.66-2.49-6.48-2.49-2.09,0-3.83,.24-5.22,.73-1.39,.49-2.6,1.03-3.64,1.59-1.04,.57-2.03,1.1-2.95,1.59-.92,.49-1.98,.75-3.19,.75-1.06,0-1.94-.27-2.66-.81-.71-.53-1.37-1.12-1.79-1.89l-2.69-4.83h0Zm30.87,25.1c-3.7,.18-6.77,.49-9.23,.95-2.45,.46-4.39,1.06-5.84,1.79-1.45,.73-2.47,1.56-3.08,2.49-.6,.93-.92,1.96-.92,3.06,0,2.2,.62,3.75,1.85,4.67,1.23,.91,2.93,1.37,5.13,1.37,2.53,0,4.72-.46,6.57-1.36,1.85-.9,3.68-2.29,5.51-4.19v-8.79h0Z"/>
  <path class="cls-2" d="M318.21,48.72c1.88,0,3.43-.24,4.64-.69,1.21-.46,2.18-1.06,2.9-1.81,.73-.76,1.24-1.63,1.52-2.61,.29-.98,.43-1.98,.43-3.02,0-1.15-.17-2.18-.51-3.09-.34-.91-.89-1.69-1.64-2.33-.75-.64-1.73-1.12-2.94-1.46-1.21-.34-2.71-.51-4.48-.51h-9.96v15.51h10.04Zm-10.04-38.8v15.32h7.7c1.64,0,3.1-.14,4.38-.42,1.28-.27,2.35-.7,3.2-1.3,.86-.6,1.52-1.39,1.98-2.37,.46-.98,.68-2.15,.68-3.53s-.18-2.61-.56-3.59c-.38-.99-.96-1.79-1.75-2.38-.78-.6-1.77-1.04-2.97-1.32-1.2-.27-2.62-.4-4.26-.4h-8.4Zm8.4-8.91c3.8,0,7.06,.35,9.75,1.07,2.7,.72,4.9,1.73,6.6,3.05,1.71,1.32,2.94,2.92,3.72,4.79,.78,1.87,1.17,3.97,1.17,6.29,0,1.3-.18,2.55-.56,3.75-.38,1.2-.96,2.32-1.76,3.37-.79,1.05-1.82,2.02-3.07,2.88-1.25,.86-2.73,1.59-4.45,2.19,3.86,.91,6.71,2.4,8.56,4.45,1.85,2.06,2.77,4.73,2.77,8.01,0,2.4-.46,4.62-1.38,6.68-.92,2.06-2.28,3.84-4.05,5.35-1.77,1.51-3.95,2.68-6.54,3.53-2.59,.85-5.57,1.28-8.93,1.28h-21.96V1.01h20.12Zm42.08,26.84c1.9,0,3.54-.25,4.92-.73,1.38-.48,2.51-1.15,3.4-1.99,.89-.85,1.54-1.84,1.95-2.98,.42-1.14,.63-2.4,.63-3.75,0-2.68-.89-4.77-2.67-6.25-1.79-1.49-4.51-2.23-8.15-2.23h-6.1V27.86h6.02Zm27.47,29.85h-10.59c-1.98,0-3.38-.78-4.3-2.27l-10.78-17.39c-.43-.69-.93-1.17-1.46-1.49-.53-.31-1.33-.47-2.37-.47h-3.99v21.61h-11.72V1.01h17.82c3.96,0,7.35,.41,10.16,1.23,2.81,.82,5.12,1.97,6.92,3.42,1.8,1.46,3.11,3.19,3.95,5.21,.83,2.02,1.25,4.24,1.25,6.67,0,1.88-.26,3.65-.79,5.33-.54,1.68-1.32,3.22-2.33,4.6-1.01,1.38-2.27,2.61-3.75,3.67-1.49,1.07-3.18,1.93-5.08,2.58,.75,.42,1.46,.91,2.11,1.5,.65,.58,1.24,1.29,1.76,2.1l13.21,20.39h0Z"/>
  <polygon class="cls-2" points="251.48 57.71 308.17 57.71 308.17 1.01 251.48 1.01 295.64 29.36 251.48 57.71 251.48 57.71"/>
  <path class="cls-2" d="M251.48,10.71c10.3,0,18.65,8.35,18.65,18.65s-8.35,18.65-18.65,18.65V10.71h0Z"/>
  <path class="cls-1" d="M126.87,76.37c.61,0,1.13-.08,1.57-.23,.44-.15,.8-.37,1.09-.64,.28-.27,.49-.59,.63-.95,.13-.37,.2-.77,.2-1.2,0-.86-.28-1.52-.85-2-.57-.48-1.44-.71-2.61-.71h-1.95v5.74h1.92Zm8.79,9.55h-3.39c-.63,0-1.09-.24-1.38-.73l-3.45-5.56c-.14-.22-.3-.38-.47-.47-.17-.1-.42-.15-.76-.15h-1.27v6.91h-3.75v-18.14h5.7c1.27,0,2.35,.13,3.25,.39,.9,.26,1.64,.63,2.21,1.1,.58,.47,1,1.02,1.26,1.67,.27,.65,.4,1.36,.4,2.13,0,.6-.08,1.17-.25,1.7-.17,.54-.42,1.03-.75,1.47-.33,.44-.73,.83-1.2,1.17-.47,.34-1.02,.62-1.62,.82,.24,.13,.47,.29,.67,.48,.21,.19,.4,.41,.56,.67l4.23,6.53h0Z"/>
  <path class="cls-1" d="M144.28,77.96c0-.36-.05-.7-.14-1.02-.1-.32-.25-.61-.46-.86-.21-.25-.47-.45-.79-.6-.32-.15-.7-.22-1.14-.22-.83,0-1.47,.23-1.94,.7-.47,.47-.77,1.13-.91,2h5.37Zm-5.42,2.05c.11,1.21,.45,2.09,1.03,2.65,.58,.56,1.33,.84,2.27,.84,.48,0,.89-.06,1.23-.17,.35-.11,.65-.24,.91-.38,.26-.14,.5-.26,.71-.38,.21-.11,.42-.17,.63-.17,.27,0,.48,.1,.62,.3l1,1.25c-.37,.42-.77,.77-1.21,1.05-.44,.28-.9,.5-1.37,.66-.48,.16-.95,.27-1.44,.34-.48,.06-.95,.1-1.4,.1-.9,0-1.74-.15-2.52-.45-.78-.3-1.46-.73-2.04-1.31-.58-.58-1.04-1.3-1.37-2.15-.33-.86-.5-1.85-.5-2.99,0-.88,.15-1.7,.43-2.47,.29-.78,.7-1.45,1.24-2.03,.54-.57,1.2-1.03,1.97-1.37,.78-.34,1.65-.5,2.62-.5,.83,0,1.59,.13,2.28,.39,.7,.26,1.3,.65,1.8,1.15,.5,.5,.9,1.11,1.18,1.84,.28,.73,.42,1.56,.42,2.5,0,.26-.01,.47-.04,.64s-.07,.3-.12,.4c-.06,.1-.14,.17-.24,.2-.1,.04-.23,.06-.39,.06h-7.73Z"/>
  <path class="cls-1" d="M154.3,79c.71,0,1.23-.18,1.57-.54,.34-.36,.5-.82,.5-1.39s-.17-1.06-.5-1.4c-.34-.34-.86-.5-1.57-.5s-1.23,.17-1.56,.5c-.33,.34-.5,.8-.5,1.4,0,.56,.17,1.02,.51,1.38,.34,.36,.85,.55,1.55,.55h0Zm3.26,7.45c0-.23-.07-.41-.21-.55s-.33-.25-.57-.34c-.24-.08-.52-.15-.85-.18-.33-.04-.67-.07-1.04-.09-.37-.02-.75-.04-1.14-.05-.39-.02-.78-.05-1.15-.09-.29,.17-.53,.38-.72,.62-.19,.24-.28,.51-.28,.81,0,.21,.05,.4,.15,.58,.1,.17,.25,.32,.48,.45,.23,.12,.52,.22,.89,.29,.37,.07,.83,.11,1.38,.11s1.05-.04,1.44-.11c.39-.07,.71-.18,.95-.32,.24-.14,.42-.3,.52-.49,.1-.19,.15-.4,.15-.63h0Zm3.42-12.99v1.26c0,.2-.05,.36-.17,.48-.11,.12-.3,.2-.56,.26l-1.05,.21c.14,.41,.21,.85,.21,1.31,0,.64-.13,1.22-.39,1.73-.26,.51-.62,.95-1.08,1.31-.46,.36-1,.64-1.63,.84-.63,.2-1.3,.3-2.03,.3-.46,0-.89-.04-1.29-.11-.35,.22-.52,.45-.52,.71,0,.24,.12,.42,.36,.53,.24,.11,.55,.18,.94,.23,.39,.05,.83,.08,1.32,.09,.5,.01,1,.04,1.51,.08,.51,.04,1.02,.11,1.51,.22,.5,.1,.94,.28,1.33,.51s.7,.55,.94,.95c.24,.39,.35,.9,.35,1.51,0,.57-.14,1.13-.42,1.67-.28,.54-.69,1.03-1.23,1.45-.54,.42-1.2,.77-1.98,1.03-.78,.26-1.67,.39-2.68,.39s-1.85-.1-2.58-.28c-.73-.19-1.33-.44-1.81-.75-.48-.31-.84-.67-1.07-1.08-.23-.41-.35-.83-.35-1.27,0-.58,.18-1.06,.53-1.46,.35-.4,.83-.72,1.45-.96-.33-.18-.58-.43-.78-.72-.2-.3-.3-.68-.3-1.15,0-.38,.14-.79,.42-1.21,.28-.43,.71-.78,1.29-1.06-.66-.35-1.18-.82-1.56-1.41-.38-.59-.57-1.27-.57-2.05,0-.64,.13-1.22,.4-1.74,.26-.52,.63-.96,1.09-1.32,.47-.36,1.02-.64,1.65-.83,.63-.19,1.32-.29,2.06-.29,1.1,0,2.07,.22,2.91,.65h3.77Z"/>
  <path class="cls-1" d="M166.34,73.03v12.89h-3.45v-12.89h3.45Zm.41-3.66c0,.29-.06,.56-.18,.81-.12,.25-.27,.47-.47,.66-.2,.19-.42,.34-.69,.45-.26,.11-.55,.16-.85,.16-.28,0-.55-.05-.8-.16-.25-.11-.48-.26-.67-.45-.19-.19-.34-.41-.45-.66s-.17-.52-.17-.81,.06-.57,.17-.82c.11-.25,.26-.48,.45-.67,.19-.19,.42-.34,.67-.45,.25-.11,.52-.16,.8-.16,.3,0,.58,.05,.85,.16,.26,.11,.49,.26,.69,.45,.2,.19,.35,.41,.47,.67,.12,.25,.18,.53,.18,.82h0Z"/>
  <path class="cls-1" d="M177.3,75.68c-.09,.14-.18,.24-.28,.3-.1,.06-.23,.1-.4,.1s-.34-.04-.51-.12c-.17-.08-.37-.18-.59-.27-.22-.1-.46-.18-.74-.27-.28-.08-.6-.12-.97-.12-.56,0-.99,.11-1.3,.34-.31,.23-.46,.53-.46,.91,0,.26,.09,.48,.26,.65,.17,.18,.41,.33,.7,.45,.29,.13,.61,.25,.98,.36,.37,.11,.75,.24,1.13,.37,.39,.13,.76,.29,1.13,.46,.37,.17,.7,.39,.98,.65,.29,.26,.52,.58,.69,.95,.17,.37,.26,.82,.26,1.35,0,.62-.11,1.2-.34,1.73-.23,.53-.57,.99-1.01,1.37s-.99,.68-1.65,.9c-.66,.22-1.42,.33-2.28,.33-.44,0-.88-.04-1.31-.12-.43-.08-.85-.19-1.24-.34-.39-.15-.76-.31-1.1-.5-.34-.19-.64-.4-.89-.63l.8-1.29c.09-.15,.21-.27,.35-.35s.31-.12,.53-.12,.4,.05,.57,.15c.18,.1,.37,.22,.59,.34,.22,.12,.48,.23,.77,.34,.3,.1,.66,.16,1.1,.16,.33,0,.62-.04,.86-.11,.24-.07,.44-.18,.59-.31,.15-.13,.26-.28,.33-.44,.07-.16,.1-.33,.1-.5,0-.28-.09-.52-.27-.7-.18-.18-.41-.33-.7-.47-.29-.13-.62-.25-1-.36-.38-.11-.75-.23-1.14-.36-.39-.13-.77-.29-1.14-.48-.37-.18-.7-.42-.99-.7-.29-.28-.52-.62-.7-1.03-.18-.41-.27-.9-.27-1.49,0-.53,.1-1.04,.31-1.52,.21-.48,.52-.9,.94-1.27,.42-.37,.94-.66,1.56-.88,.62-.22,1.34-.33,2.15-.33,.92,0,1.75,.15,2.5,.45,.75,.3,1.37,.69,1.85,1.17l-.79,1.23h0Z"/>
  <path class="cls-1" d="M184.8,86.12c-.58,0-1.1-.09-1.55-.26-.45-.17-.83-.41-1.14-.73-.31-.32-.54-.7-.7-1.15-.16-.45-.24-.96-.24-1.53v-6.95h-1.21c-.18,0-.34-.06-.47-.17-.13-.12-.2-.29-.2-.52v-1.35l2.06-.38,.7-3.34c.09-.37,.35-.56,.76-.56h1.8v3.93h3.33v2.4h-3.33v6.72c0,.36,.09,.64,.26,.85,.17,.21,.41,.31,.73,.31,.17,0,.31-.02,.42-.06,.12-.04,.22-.08,.3-.12,.08-.05,.16-.09,.23-.12,.07-.04,.14-.05,.22-.05,.1,0,.18,.02,.25,.07,.07,.05,.13,.12,.2,.23l1.04,1.65c-.48,.38-1.01,.66-1.61,.85-.6,.19-1.22,.29-1.86,.29h0Z"/>
  <path class="cls-1" d="M193.03,75.16c.41-.73,.88-1.31,1.41-1.74,.53-.42,1.16-.64,1.88-.64,.58,0,1.06,.14,1.42,.41l-.23,2.55c-.04,.17-.1,.28-.19,.34-.09,.06-.21,.1-.36,.1-.13,0-.33-.02-.58-.06-.25-.04-.48-.05-.7-.05-.32,0-.6,.05-.84,.14-.25,.09-.47,.22-.66,.39s-.36,.37-.52,.61c-.15,.24-.3,.52-.43,.83v7.89h-3.45v-12.89h2.04c.35,0,.59,.06,.72,.19,.13,.12,.23,.34,.29,.65l.19,1.29h0Z"/>
  <path class="cls-1" d="M204.73,72.83c.97,0,1.85,.15,2.64,.46,.79,.31,1.47,.75,2.04,1.32,.57,.57,1,1.27,1.31,2.08,.31,.82,.46,1.74,.46,2.76s-.15,1.95-.46,2.77c-.31,.82-.75,1.52-1.31,2.1-.57,.57-1.25,1.02-2.04,1.32-.79,.31-1.67,.46-2.64,.46s-1.86-.15-2.65-.46c-.8-.31-1.48-.75-2.05-1.32-.57-.58-1-1.27-1.32-2.1-.31-.82-.47-1.74-.47-2.77s.16-1.95,.47-2.76c.31-.82,.75-1.51,1.32-2.08,.57-.57,1.25-1.01,2.05-1.32,.8-.31,1.68-.46,2.65-.46h0Zm0,10.69c.98,0,1.71-.34,2.19-1.02,.48-.68,.71-1.69,.71-3.03s-.24-2.34-.71-3.02c-.48-.68-1.2-1.02-2.19-1.02s-1.75,.34-2.22,1.02c-.48,.68-.71,1.69-.71,3.02s.24,2.35,.71,3.03,1.22,1.02,2.22,1.02h0Z"/>
  <path class="cls-1" d="M232.12,81.46c.21,0,.38,.08,.52,.23l1.49,1.59c-.73,.93-1.64,1.64-2.73,2.13-1.09,.48-2.38,.73-3.88,.73-1.36,0-2.58-.23-3.66-.7-1.08-.46-2-1.1-2.76-1.93-.76-.82-1.34-1.8-1.75-2.94-.41-1.13-.61-2.37-.61-3.71,0-.9,.1-1.76,.3-2.57,.2-.81,.48-1.56,.85-2.24,.38-.68,.83-1.3,1.36-1.85,.53-.55,1.12-1.02,1.79-1.41s1.4-.68,2.18-.89c.79-.2,1.63-.3,2.52-.3,.67,0,1.3,.06,1.9,.17,.6,.12,1.15,.28,1.67,.49,.52,.21,1,.46,1.43,.75,.44,.3,.83,.62,1.18,.97l-1.26,1.73c-.08,.11-.17,.2-.29,.29-.12,.08-.27,.12-.47,.12s-.4-.07-.6-.21c-.2-.14-.45-.3-.75-.48-.3-.17-.67-.33-1.11-.47-.45-.14-1.01-.21-1.7-.21-.76,0-1.45,.14-2.09,.41s-1.17,.67-1.63,1.19c-.45,.52-.81,1.16-1.06,1.92-.25,.76-.38,1.62-.38,2.59s.14,1.84,.41,2.6c.27,.76,.64,1.41,1.11,1.93s1.02,.92,1.65,1.19c.63,.27,1.3,.41,2.02,.41,.42,0,.81-.02,1.16-.06,.35-.04,.67-.11,.96-.21,.3-.1,.57-.23,.84-.39,.26-.16,.52-.36,.79-.6,.09-.07,.19-.14,.29-.19,.1-.05,.21-.08,.33-.08h0Z"/>
  <path class="cls-1" d="M239.32,73.03v12.89h-3.45v-12.89h3.45Zm.41-3.66c0,.29-.06,.56-.18,.81-.12,.25-.27,.47-.47,.66-.2,.19-.42,.34-.69,.45-.26,.11-.55,.16-.85,.16-.28,0-.55-.05-.8-.16-.25-.11-.48-.26-.67-.45-.19-.19-.34-.41-.45-.66-.11-.25-.17-.52-.17-.81s.06-.57,.17-.82c.11-.25,.26-.48,.45-.67,.19-.19,.42-.34,.67-.45,.25-.11,.52-.16,.8-.16,.3,0,.58,.05,.85,.16,.26,.11,.49,.26,.69,.45,.2,.19,.35,.41,.47,.67,.12,.25,.18,.53,.18,.82h0Z"/>
  <path class="cls-1" d="M254.13,73.03l-5.06,12.89h-3.12l-5.06-12.89h2.86c.25,0,.46,.06,.62,.17,.17,.12,.28,.27,.35,.45l2.16,6.37c.14,.43,.27,.85,.38,1.27,.11,.41,.2,.83,.29,1.25,.09-.42,.2-.83,.31-1.25,.11-.41,.24-.83,.39-1.27l2.24-6.37c.06-.18,.17-.33,.34-.45,.17-.12,.36-.17,.59-.17h2.72Z"/>
  <path class="cls-1" d="M259.14,73.03v12.89h-3.45v-12.89h3.45Zm.41-3.66c0,.29-.06,.56-.18,.81-.12,.25-.27,.47-.47,.66-.2,.19-.42,.34-.69,.45-.26,.11-.55,.16-.85,.16-.28,0-.55-.05-.8-.16-.25-.11-.48-.26-.67-.45-.19-.19-.34-.41-.45-.66-.11-.25-.17-.52-.17-.81s.06-.57,.17-.82c.11-.25,.26-.48,.45-.67,.19-.19,.42-.34,.67-.45,.25-.11,.52-.16,.8-.16,.3,0,.58,.05,.85,.16,.26,.11,.49,.26,.69,.45,.2,.19,.35,.41,.47,.67,.12,.25,.18,.53,.18,.82h0Z"/>
  <polygon class="cls-1" points="265.56 67.28 265.56 85.92 262.11 85.92 262.11 67.28 265.56 67.28 265.56 67.28"/>
  <path class="cls-1" d="M282.34,76.38c-.33-.38-.67-.64-1.05-.79s-.78-.23-1.21-.23-.8,.08-1.14,.24c-.34,.16-.63,.4-.88,.74-.25,.34-.44,.77-.57,1.3-.13,.53-.2,1.15-.2,1.87s.05,1.33,.16,1.82c.11,.5,.27,.9,.47,1.21,.2,.31,.45,.53,.74,.67s.62,.21,.98,.21c.61,0,1.12-.12,1.53-.36,.41-.24,.8-.58,1.17-1.02v-5.66h0Zm3.45-9.1v18.64h-2.13c-.44,0-.72-.2-.85-.6l-.29-1.12c-.26,.28-.53,.54-.82,.77-.29,.23-.6,.43-.93,.6-.33,.17-.69,.3-1.08,.4-.38,.09-.8,.14-1.25,.14-.69,0-1.33-.15-1.9-.44-.58-.29-1.07-.72-1.49-1.28-.42-.56-.75-1.25-.98-2.07-.23-.82-.35-1.75-.35-2.8,0-.96,.13-1.85,.4-2.67,.26-.83,.63-1.54,1.12-2.14,.48-.6,1.07-1.07,1.75-1.41,.68-.34,1.44-.51,2.28-.51,.7,0,1.29,.1,1.77,.31,.48,.21,.91,.49,1.3,.85v-6.66h3.45Z"/>
  <path class="cls-1" d="M294.46,72.83c.97,0,1.85,.15,2.64,.46,.79,.31,1.47,.75,2.04,1.32,.57,.57,1,1.27,1.31,2.08,.31,.82,.46,1.74,.46,2.76s-.15,1.95-.46,2.77c-.31,.82-.75,1.52-1.31,2.1-.57,.57-1.25,1.02-2.04,1.32-.79,.31-1.67,.46-2.64,.46s-1.86-.15-2.65-.46c-.8-.31-1.48-.75-2.05-1.32-.57-.58-1-1.27-1.32-2.1-.31-.82-.47-1.74-.47-2.77s.16-1.95,.47-2.76c.31-.82,.75-1.51,1.32-2.08,.57-.57,1.25-1.01,2.05-1.32,.8-.31,1.68-.46,2.65-.46h0Zm0,10.69c.98,0,1.71-.34,2.19-1.02s.71-1.69,.71-3.03-.24-2.34-.71-3.02c-.48-.68-1.2-1.02-2.19-1.02s-1.75,.34-2.22,1.02c-.48,.68-.71,1.69-.71,3.02s.24,2.35,.71,3.03c.48,.68,1.22,1.02,2.22,1.02h0Z"/>
  <path class="cls-1" d="M316.46,83.05c.6,0,1.1-.08,1.48-.22,.39-.15,.7-.34,.93-.58,.23-.24,.4-.52,.49-.83,.09-.31,.14-.63,.14-.97,0-.37-.05-.7-.16-.99s-.28-.54-.52-.75c-.24-.2-.55-.36-.94-.47-.39-.11-.87-.16-1.43-.16h-3.19v4.96h3.21Zm-3.21-12.41v4.9h2.46c.52,0,.99-.05,1.4-.13,.41-.09,.75-.22,1.03-.42s.49-.45,.63-.76c.15-.31,.22-.69,.22-1.13s-.06-.83-.18-1.15c-.12-.32-.31-.57-.56-.76-.25-.19-.57-.33-.95-.42-.38-.09-.84-.13-1.36-.13h-2.69Zm2.69-2.85c1.22,0,2.26,.11,3.12,.34,.86,.23,1.57,.55,2.11,.97,.55,.42,.94,.93,1.19,1.53,.25,.6,.37,1.27,.37,2.01,0,.42-.06,.82-.18,1.2-.12,.38-.31,.74-.56,1.08-.25,.34-.58,.65-.98,.92-.4,.27-.88,.51-1.43,.7,1.23,.29,2.15,.77,2.74,1.43,.59,.66,.89,1.51,.89,2.56,0,.77-.15,1.48-.44,2.14-.3,.66-.73,1.23-1.3,1.71-.57,.48-1.26,.86-2.09,1.13-.83,.27-1.78,.41-2.86,.41h-7.02v-18.14h6.44Z"/>
  <path class="cls-1" d="M328.63,75.16c.41-.73,.88-1.31,1.41-1.74,.53-.42,1.16-.64,1.88-.64,.58,0,1.06,.14,1.42,.41l-.23,2.55c-.04,.17-.1,.28-.19,.34-.09,.06-.21,.1-.36,.1-.13,0-.33-.02-.58-.06-.25-.04-.48-.05-.7-.05-.32,0-.6,.05-.84,.14-.25,.09-.47,.22-.66,.39-.19,.17-.36,.37-.52,.61-.15,.24-.3,.52-.43,.83v7.89h-3.45v-12.89h2.04c.35,0,.59,.06,.72,.19,.13,.12,.23,.34,.29,.65l.19,1.29h0Z"/>
  <path class="cls-1" d="M341.4,80.53c-.84,.04-1.54,.11-2.1,.22-.56,.1-1,.24-1.33,.41-.33,.17-.56,.35-.7,.57-.14,.21-.21,.45-.21,.7,0,.5,.14,.85,.42,1.06,.28,.21,.67,.31,1.17,.31,.57,0,1.07-.1,1.5-.31,.42-.2,.84-.52,1.25-.95v-2h0Zm-7.02-5.71c.76-.68,1.6-1.2,2.51-1.53,.92-.34,1.91-.5,2.97-.5,.77,0,1.45,.12,2.06,.38,.6,.25,1.12,.6,1.54,1.04,.42,.45,.74,.98,.97,1.6,.23,.62,.34,1.29,.34,2.03v8.1h-1.57c-.32,0-.57-.05-.74-.14-.17-.09-.31-.28-.42-.58l-.28-.82c-.32,.28-.64,.53-.94,.75-.3,.22-.62,.4-.95,.54-.32,.15-.67,.26-1.04,.33-.37,.07-.79,.11-1.25,.11-.57,0-1.08-.08-1.55-.23-.47-.15-.87-.38-1.2-.67-.34-.3-.6-.66-.78-1.1-.18-.44-.27-.95-.27-1.53,0-.47,.12-.95,.36-1.42,.24-.48,.66-.91,1.25-1.3,.59-.39,1.37-.71,2.35-.96,.98-.25,2.2-.4,3.68-.43v-.66c0-.81-.17-1.4-.51-1.78-.34-.38-.83-.57-1.47-.57-.48,0-.87,.05-1.19,.17-.32,.11-.59,.23-.83,.36-.24,.13-.46,.25-.67,.36-.21,.11-.45,.17-.73,.17-.24,0-.44-.06-.6-.18-.16-.12-.3-.26-.41-.43l-.61-1.1h0Z"/>
  <path class="cls-1" d="M355.48,75.68c-.09,.14-.18,.24-.28,.3-.1,.06-.23,.1-.4,.1s-.34-.04-.51-.12c-.17-.08-.37-.18-.59-.27-.22-.1-.46-.18-.74-.27-.28-.08-.6-.12-.97-.12-.56,0-.99,.11-1.3,.34-.31,.23-.46,.53-.46,.91,0,.26,.09,.48,.26,.65,.17,.18,.41,.33,.7,.45,.29,.13,.61,.25,.98,.36,.37,.11,.75,.24,1.13,.37,.39,.13,.76,.29,1.13,.46,.37,.17,.7,.39,.98,.65,.29,.26,.52,.58,.69,.95,.17,.37,.26,.82,.26,1.35,0,.62-.11,1.2-.34,1.73-.23,.53-.57,.99-1.01,1.37s-.99,.68-1.65,.9c-.66,.22-1.42,.33-2.28,.33-.44,0-.88-.04-1.31-.12-.43-.08-.85-.19-1.24-.34-.39-.15-.76-.31-1.1-.5-.34-.19-.64-.4-.89-.63l.8-1.29c.09-.15,.21-.27,.35-.35,.14-.08,.31-.12,.53-.12s.4,.05,.57,.15c.18,.1,.37,.22,.59,.34,.22,.12,.48,.23,.77,.34,.3,.1,.66,.16,1.1,.16,.33,0,.62-.04,.86-.11,.24-.07,.44-.18,.59-.31,.15-.13,.26-.28,.33-.44,.07-.16,.1-.33,.1-.5,0-.28-.09-.52-.27-.7-.18-.18-.41-.33-.7-.47-.29-.13-.62-.25-1-.36-.38-.11-.75-.23-1.14-.36-.39-.13-.77-.29-1.14-.48-.37-.18-.7-.42-.99-.7-.29-.28-.52-.62-.7-1.03-.18-.41-.27-.9-.27-1.49,0-.53,.1-1.04,.31-1.52,.21-.48,.52-.9,.94-1.27,.42-.37,.94-.66,1.56-.88,.62-.22,1.34-.33,2.15-.33,.92,0,1.75,.15,2.5,.45,.75,.3,1.37,.69,1.85,1.17l-.79,1.23h0Z"/>
  <path class="cls-1" d="M362.08,73.03v12.89h-3.45v-12.89h3.45Zm.41-3.66c0,.29-.06,.56-.18,.81-.12,.25-.27,.47-.47,.66-.2,.19-.42,.34-.69,.45-.26,.11-.55,.16-.85,.16-.28,0-.55-.05-.8-.16-.25-.11-.48-.26-.67-.45-.19-.19-.34-.41-.45-.66s-.17-.52-.17-.81,.06-.57,.17-.82c.11-.25,.26-.48,.45-.67,.19-.19,.42-.34,.67-.45,.25-.11,.52-.16,.8-.16,.3,0,.58,.05,.85,.16,.26,.11,.49,.26,.69,.45,.2,.19,.35,.41,.47,.67,.12,.25,.18,.53,.18,.82h0Z"/>
  <polygon class="cls-1" points="368.5 67.28 368.5 85.92 365.05 85.92 365.05 67.28 368.5 67.28 368.5 67.28"/>
</svg>