<svg xmlns="http://www.w3.org/2000/svg" width="27.845" height="22.626" viewBox="0 0 27.845 22.626">
  <path id="Twitter-logo" d="M25.994,7.13c.017.245.017.491.017.739,0,7.549-5.747,16.254-16.254,16.254v0A16.172,16.172,0,0,1,1,21.557a11.62,11.62,0,0,0,1.36.083,11.471,11.471,0,0,0,7.095-2.45,5.72,5.72,0,0,1-5.337-3.967,5.694,5.694,0,0,0,2.579-.1,5.713,5.713,0,0,1-4.583-5.6V9.452a5.676,5.676,0,0,0,2.593.715A5.72,5.72,0,0,1,2.939,2.54,16.214,16.214,0,0,0,14.713,8.508,5.718,5.718,0,0,1,24.448,3.3a11.463,11.463,0,0,0,3.628-1.387A5.734,5.734,0,0,1,25.564,5.07a11.361,11.361,0,0,0,3.281-.9A11.606,11.606,0,0,1,25.994,7.13Z" transform="translate(-1 -1.497)" fill="#000"/>
</svg>
