<svg xmlns="http://www.w3.org/2000/svg" width="31.97" height="22.623" viewBox="0 0 31.97 22.623">
  <g id="youtube-svgrepo-com" transform="translate(0 -67.393)">
    <path id="Caminho_1999" data-name="Caminho 1999" d="M25.33,67.393H6.64A6.64,6.64,0,0,0,0,74.033v9.343a6.64,6.64,0,0,0,6.64,6.64H25.33a6.64,6.64,0,0,0,6.64-6.64V74.033A6.64,6.64,0,0,0,25.33,67.393ZM20.84,79.159,12.1,83.328a.351.351,0,0,1-.5-.317v-8.6a.351.351,0,0,1,.51-.313l8.742,4.43A.351.351,0,0,1,20.84,79.159Z" fill="#000"/>
  </g>
</svg>
